<?xml version="1.0" encoding="iso-8859-1"?>
<!-- Generator: Adobe Illustrator 17.1.0, SVG Export Plug-In . SVG Version: 6.00 Build 0)  -->
<!DOCTYPE svg PUBLIC "-//W3C//DTD SVG 1.1//EN" "http://www.w3.org/Graphics/SVG/1.1/DTD/svg11.dtd">
<svg version="1.1" id="Capa_1" xmlns="http://www.w3.org/2000/svg" xmlns:xlink="http://www.w3.org/1999/xlink" x="0px" y="0px"
	 viewBox="0 0 234.579 234.579" style="enable-background:new 0 0 234.579 234.579;" xml:space="preserve">
<g>
	<path d="M82.014,46.373C36.791,46.373,0,83.163,0,128.385C0,173.608,36.791,210.4,82.014,210.4
		c45.223,0,82.014-36.792,82.014-82.016C164.027,83.163,127.236,46.373,82.014,46.373z M82.014,186.636
		c-32.17,0-58.25-26.079-58.25-58.251c0-32.169,26.08-58.248,58.25-58.248s58.25,26.079,58.25,58.248
		C140.264,160.557,114.184,186.636,82.014,186.636z"/>
	<path d="M82.014,77.679c-27.961,0-50.709,22.747-50.709,50.706c0,27.962,22.748,50.71,50.709,50.71
		c27.961,0,50.709-22.748,50.709-50.71C132.723,100.426,109.975,77.679,82.014,77.679z M85.195,84.169
		c9.823,0.7,18.767,4.61,25.793,10.689l-17.376,17.376c-2.449-1.77-5.312-2.988-8.417-3.491V84.169z M78.832,84.169v24.574
		c-3.106,0.504-5.969,1.723-8.419,3.493L53.037,94.86C60.063,88.78,69.008,84.869,78.832,84.169z M48.533,99.356l17.381,17.381
		c-1.769,2.449-2.986,5.312-3.489,8.417H37.799C38.51,115.325,42.437,106.378,48.533,99.356z M37.791,131.518h24.634
		c0.503,3.105,1.721,5.967,3.49,8.415l-17.429,17.429C42.396,150.324,38.482,141.361,37.791,131.518z M78.832,172.604
		c-9.85-0.702-18.814-4.631-25.849-10.739l17.431-17.432c2.449,1.77,5.313,2.987,8.418,3.491V172.604z M66.577,128.336
		c0-8.527,6.912-15.441,15.437-15.441c8.526,0,15.438,6.913,15.438,15.441c0,8.525-6.911,15.436-15.438,15.436
		C73.489,143.772,66.577,136.861,66.577,128.336z M85.195,172.604v-24.68c3.105-0.503,5.967-1.721,8.416-3.49l17.432,17.432
		C104.009,167.974,95.044,171.902,85.195,172.604z M115.539,157.362l-17.428-17.428c1.771-2.449,2.988-5.311,3.492-8.417h24.633
		C125.545,141.361,121.631,150.325,115.539,157.362z M101.604,125.154c-0.503-3.106-1.722-5.97-3.492-8.42l17.381-17.38
		c6.098,7.022,10.025,15.97,10.736,25.8H101.604z"/>
	<path d="M234.579,59.161c0-14.623-7.894-28.223-20.602-35.49c-0.676-0.387-1.459-0.591-2.266-0.591
		c-2.563,0-4.495,1.999-4.495,4.637c0,0-0.079,20.455-0.078,27.274c0,0.714-0.855,1.566-1.211,1.822l-0.255,0.192
		c-4.09,3.401-9.246,7.233-11.524,8.418c-0.145-0.001-0.283-0.005-0.431-0.005c-0.157,0-0.306,0.004-0.459,0.006
		c-2.312-1.188-7.551-5.086-11.699-8.553l-0.261-0.197c-0.01-0.007-1.005-0.804-1.005-2.338c0-7.096-0.071-26.604-0.071-26.604
		c-0.004-3.073-2.205-4.681-4.378-4.681c-0.84,0-1.707,0.23-2.45,0.655c-12.668,7.279-20.538,20.864-20.538,35.453
		c0,17.113,10.578,31.793,25.535,37.869l-0.001,99.593c0,8.218,6.686,14.903,14.903,14.903h0.848
		c8.218,0,14.903-6.686,14.903-14.903l0.002-99.566c5.017-2.028,9.624-5.06,13.565-9.001
		C230.33,80.338,234.58,70.075,234.579,59.161z"/>
</g>
<g>
</g>
<g>
</g>
<g>
</g>
<g>
</g>
<g>
</g>
<g>
</g>
<g>
</g>
<g>
</g>
<g>
</g>
<g>
</g>
<g>
</g>
<g>
</g>
<g>
</g>
<g>
</g>
<g>
</g>
</svg>
