<?xml version="1.0" encoding="iso-8859-1"?>
<!-- Generator: Adobe Illustrator 16.0.0, SVG Export Plug-In . SVG Version: 6.00 Build 0)  -->
<!DOCTYPE svg PUBLIC "-//W3C//DTD SVG 1.1//EN" "http://www.w3.org/Graphics/SVG/1.1/DTD/svg11.dtd">
<svg version="1.1" id="Capa_1" xmlns="http://www.w3.org/2000/svg" xmlns:xlink="http://www.w3.org/1999/xlink" x="0px" y="0px"
	 width="45.925px" height="45.925px" viewBox="0 0 45.925 45.925" style="enable-background:new 0 0 45.925 45.925;"
	 xml:space="preserve">
<g>
	<g>
		<path d="M41.871,25.874l-3.518-0.603v-1.578c0-3.862-2.727-6.768-6.344-6.768H14.404c-3.736,0-6.752,3.031-6.752,6.768v1.598
			l-3.581,0.587c-0.443,0.073-0.792,0.457-0.792,0.905v0.899c0,0.507,0.434,0.908,0.94,0.908h0.977
			c-0.239,0.405-0.378,0.86-0.378,1.353v7.664c0,1.203,0.81,2.213,1.943,2.491v4.894c0,0.506,0.413,0.933,0.919,0.933h4.223
			c0.507,0,0.934-0.427,0.934-0.935v-4.816h20.738v4.816c0,0.508,0.427,0.935,0.935,0.935h4.223c0.508,0,0.918-0.427,0.918-0.935
			v-4.998c0.972-0.377,1.619-1.303,1.619-2.387v-7.664c0-0.492-0.137-0.947-0.377-1.353h0.813c0.507,0,0.94-0.399,0.94-0.908v-0.903
			C42.646,26.332,42.312,25.949,41.871,25.874z M11.055,23.693c0-1.828,1.521-3.285,3.349-3.285h5.17
			c-0.007,0-0.013,0.04-0.013,0.076v1.524c0,0.288,0.235,0.506,0.523,0.506h5.376c0.288,0,0.5-0.218,0.5-0.506v-1.524
			c0-0.036,0.019-0.076,0.012-0.076h6.039c1.979,0,2.857,1.688,2.857,3.285v2.709H11.055V23.693z M12.781,35.895
			c-1.014,0-1.837-0.822-1.837-1.838c0-1.015,0.823-1.838,1.837-1.838c1.016,0,1.839,0.823,1.839,1.838
			C14.62,35.072,13.797,35.895,12.781,35.895z M28.313,35.8H17.81c-0.957,0-1.731-0.786-1.731-1.742
			c0-0.955,0.774-1.741,1.731-1.741h10.503c0.954,0,1.731,0.786,1.731,1.741C30.044,35.014,29.267,35.8,28.313,35.8z M31.501,34.056
			c0-1.015,0.823-1.838,1.838-1.838s1.838,0.823,1.838,1.838s-0.823,1.838-1.838,1.838C32.325,35.895,31.501,35.07,31.501,34.056z"
			/>
		<path d="M33.483,0c-2.646,0-4.945,1.529-6.118,3.721h-1.646c-0.178,0-0.352-0.013-0.5,0.083l-1.92,1.211
			C23.063,5.168,22.759,5.153,22.523,5l-1.78-1.155c-0.233-0.15-0.531-0.157-0.768-0.011l-1.871,1.153
			c-0.246,0.153-0.559,0.155-0.807,0.004l-1.914-1.149c-0.258-0.154-0.578-0.152-0.833,0.003l-1.269,0.782
			c-0.213,0.131-0.484,0.126-0.693-0.014l-1.334-0.826c-0.13-0.086-0.283-0.068-0.439-0.068h-1.9c-1.886,0-3.414,1.375-3.414,3.262
			c0,1.742,1.411,3,3.151,3h18.712c1.173,2.192,3.474,3.746,6.118,3.746c3.832,0,6.939-3.03,6.939-6.864
			C40.423,3.031,37.315,0,33.483,0z M35.363,9.121c-1.24,0-2.244-1.005-2.244-2.245c0-1.239,1.004-2.244,2.244-2.244
			s2.244,1.004,2.244,2.244C37.607,8.116,36.603,9.121,35.363,9.121z"/>
	</g>
</g>
<g>
</g>
<g>
</g>
<g>
</g>
<g>
</g>
<g>
</g>
<g>
</g>
<g>
</g>
<g>
</g>
<g>
</g>
<g>
</g>
<g>
</g>
<g>
</g>
<g>
</g>
<g>
</g>
<g>
</g>
</svg>
